<?xml version="1.0" standalone="no"?>
<!DOCTYPE svg PUBLIC "-//W3C//DTD SVG 20010904//EN"
 "http://www.w3.org/TR/2001/REC-SVG-20010904/DTD/svg10.dtd">
<svg version="1.0" xmlns="http://www.w3.org/2000/svg"
 width="961.000000pt" height="961.000000pt" viewBox="0 0 961.000000 961.000000"
 preserveAspectRatio="xMidYMid meet">
<metadata>
Created by potrace 1.16, written by Peter Selinger 2001-2019
</metadata>
<g transform="translate(0.000000,961.000000) scale(0.100000,-0.100000)"
fill="#000000" stroke="none">
<path d="M1212 8190 c2 -5 397 -537 879 -1182 685 -918 1701 -2279 1875 -2514
l23 -31 -47 -54 c-37 -43 -1357 -1472 -2332 -2524 -276 -298 -410 -447 -410
-455 0 -8 491 -24 577 -18 l51 3 899 971 c494 534 1046 1131 1227 1328 263
285 332 354 341 344 10 -10 994 -1327 1843 -2465 l137 -183 396 0 c661 0 1749
13 1749 21 0 10 -95 139 -1029 1389 -1837 2461 -1894 2537 -1884 2555 16 27
336 376 1679 1831 827 895 894 969 894 978 0 3 -144 6 -319 6 l-320 0 -908
-982 c-500 -541 -1005 -1088 -1122 -1216 -172 -187 -217 -231 -226 -220 -16
17 -1418 1894 -1639 2195 l-171 232 -1083 0 c-701 1 -1082 -2 -1080 -9z m2085
-697 c93 -126 1033 -1382 2087 -2793 1055 -1411 1956 -2615 2002 -2676 77
-104 81 -112 61 -118 -12 -3 -230 -6 -483 -6 l-462 0 -18 28 c-18 28 -1054
1415 -2775 3717 -1223 1636 -1533 2052 -1537 2065 -3 7 164 10 476 10 l479 0
170 -227z"/>
</g>
</svg>
