<?xml version="1.0" standalone="no"?>
<!DOCTYPE svg PUBLIC "-//W3C//DTD SVG 20010904//EN"
 "http://www.w3.org/TR/2001/REC-SVG-20010904/DTD/svg10.dtd">
<svg version="1.0" xmlns="http://www.w3.org/2000/svg"
 width="403.000000pt" height="403.000000pt" viewBox="0 0 403.000000 403.000000"
 preserveAspectRatio="xMidYMid meet">
<metadata>
Created by potrace 1.14, written by Peter Selinger 2001-2017
</metadata>
<g transform="translate(0.000000,403.000000) scale(0.100000,-0.100000)"
fill="#000000" stroke="none">
<path d="M90 2015 l0 -2015 1920 0 1920 0 0 2015 0 2015 -1920 0 -1920 0 0
-2015z m3768 1098 c-2 -18 -10 -29 -23 -31 -42 -8 -48 -22 -42 -104 4 -43 3
-78 -1 -78 -4 0 -17 -3 -28 -6 -20 -5 -22 0 -33 78 -7 45 -14 97 -17 114 -5
26 -2 32 15 37 15 3 25 -1 32 -14 10 -19 11 -19 30 5 12 16 31 26 45 26 22 0
25 -4 22 -27z m-215 -44 c16 -18 27 -40 27 -58 0 -29 -2 -30 -65 -36 -36 -4
-68 -12 -71 -17 -3 -5 2 -18 12 -29 15 -16 26 -19 54 -14 19 4 39 11 45 16 16
16 25 10 25 -16 0 -31 -31 -45 -99 -45 -40 0 -52 5 -76 30 -25 27 -29 38 -30
89 0 67 18 96 69 110 44 12 77 3 109 -30z m-789 -1 c8 -40 36 -254 36 -276 0
-17 -6 -22 -28 -22 l-29 0 -21 151 c-12 83 -19 155 -16 160 3 5 16 9 29 9 17
0 26 -7 29 -22z m538 -29 c71 -94 17 -236 -76 -201 -16 7 -31 11 -32 9 -1 -1
2 -24 8 -50 5 -26 7 -54 4 -62 -5 -15 -56 -21 -57 -7 0 4 -10 77 -23 162 l-22
155 20 6 c13 4 26 0 33 -8 10 -13 15 -11 33 7 30 30 86 24 112 -11z m-272 -37
c58 -59 45 -168 -24 -197 -45 -19 -70 -19 -106 0 -36 19 -65 90 -56 139 15 82
127 117 186 58z m-389 -48 c19 -17 42 -81 34 -94 -3 -4 -33 -11 -67 -14 -75
-9 -81 -12 -68 -37 12 -21 77 -27 110 -9 14 7 20 6 24 -7 12 -31 -19 -48 -90
-48 -61 0 -68 2 -89 29 -50 63 -36 163 27 191 39 18 93 13 119 -11z m-730
-114 c10 -69 20 -140 23 -157 4 -29 2 -33 -18 -33 -12 0 -27 5 -33 11 -8 8
-17 5 -32 -10 -23 -23 -61 -27 -92 -11 -30 17 -49 64 -49 125 0 46 4 60 25 80
25 26 63 32 96 15 22 -12 22 -10 9 48 -12 52 -7 64 28 60 25 -3 26 -6 43 -128z
m509 96 c0 -13 -34 -168 -46 -208 -4 -12 -15 -18 -37 -18 -31 0 -35 5 -88 103
-57 103 -58 117 -14 117 16 0 30 -19 60 -77 21 -43 40 -71 41 -63 2 8 8 48 14
88 12 70 13 72 41 72 18 0 29 -5 29 -14z m-277 -46 c23 -18 53 -87 43 -97 -2
-2 -35 -9 -72 -15 -38 -5 -70 -12 -72 -13 -2 -2 2 -13 8 -25 10 -18 18 -21 53
-18 23 3 49 8 58 12 12 5 18 1 22 -14 4 -17 -1 -24 -28 -36 -63 -26 -142 -9
-160 33 -32 77 -21 143 28 173 41 26 88 25 120 0z m-665 -47 c2 -17 10 -21 35
-19 26 1 32 -3 32 -19 0 -15 -8 -21 -28 -23 l-29 -4 7 -61 c9 -77 11 -80 45
-73 21 4 30 1 35 -12 8 -22 -20 -42 -60 -42 -51 0 -65 18 -79 100 -7 41 -17
75 -23 75 -21 0 -26 15 -10 32 8 10 20 31 26 46 13 33 44 34 49 0z m-142 -63
c6 0 24 -65 29 -105 4 -27 9 -62 11 -77 5 -25 2 -28 -19 -28 -14 0 -27 5 -29
12 -3 8 -13 5 -33 -10 -15 -12 -42 -22 -60 -22 -47 0 -70 32 -66 93 1 20 56
57 86 57 11 0 27 5 35 10 13 8 13 11 -2 26 -15 15 -22 16 -59 5 -34 -10 -43
-10 -50 1 -13 20 -11 25 19 36 39 16 73 19 107 10 16 -4 30 -8 31 -8z m-265
-30 c22 -12 49 -61 49 -89 0 -20 0 -20 -107 -37 -35 -5 -43 -24 -18 -44 15
-12 48 -10 103 6 21 6 23 4 20 -17 -4 -33 -71 -57 -124 -43 -97 24 -116 174
-29 222 25 14 81 15 106 2z m-207 -32 c9 -34 8 -35 -23 -41 -44 -9 -53 -35
-41 -109 10 -68 5 -82 -31 -76 -22 3 -25 10 -35 88 -19 133 -18 140 11 140 16
0 25 -6 25 -16 0 -12 7 -10 31 10 38 32 55 33 63 4z m-576 -137 c40 -76 72
-141 72 -145 0 -3 -15 -6 -34 -6 -28 0 -36 5 -46 31 -13 30 -14 30 -64 24 -63
-9 -66 -11 -66 -38 0 -31 -11 -43 -42 -49 -18 -3 -28 -1 -28 7 0 11 42 228 55
282 5 20 11 23 70 32 6 0 43 -61 83 -138z m392 114 c0 -9 -7 -18 -15 -21 -10
-4 -13 -14 -9 -30 14 -54 -27 -104 -86 -104 -11 0 -20 -7 -20 -15 0 -12 13
-14 66 -12 55 2 68 -1 80 -17 20 -28 17 -59 -6 -89 -37 -47 -153 -64 -190 -27
-25 25 -25 41 -1 71 15 18 16 27 7 41 -8 13 -8 23 0 35 8 14 7 21 -8 33 -31
26 -34 72 -6 105 20 23 35 29 89 35 98 11 99 11 99 -5z m1870 -1486 c90 -41
122 -90 121 -188 0 -85 -36 -155 -145 -286 l-80 -95 -79 0 c-91 0 -93 -12 12
109 l64 75 -51 11 c-106 24 -168 108 -160 215 5 75 36 122 102 155 64 32 151
34 216 4z m502 -9 c20 -14 44 -37 52 -51 31 -52 13 -143 -34 -176 -19 -13 -18
-15 17 -46 99 -87 79 -209 -44 -271 -100 -50 -247 -16 -304 71 -38 57 -17 161
40 204 l30 22 -29 33 c-71 81 -38 188 70 233 14 6 57 10 95 8 55 -2 78 -8 107
-27z m486 15 c76 -33 115 -91 116 -175 0 -37 -7 -68 -21 -95 -21 -41 -109
-135 -153 -164 -23 -15 -20 -16 80 -21 l105 -5 0 -55 0 -55 -222 -3 c-200 -2
-223 -1 -223 14 0 9 51 66 113 128 62 61 128 134 146 161 28 44 32 56 28 99
-5 56 -24 76 -73 76 -24 0 -40 -9 -62 -34 -17 -19 -33 -44 -37 -55 -6 -20 -7
-20 -58 5 -29 15 -54 28 -56 30 -2 2 8 23 23 48 27 47 73 87 116 105 38 15
137 13 178 -4z m-3028 -50 l0 -55 -100 0 -100 0 0 -60 0 -59 93 -3 92 -3 3
-52 3 -52 -93 -3 -93 -3 -3 -117 -3 -118 -64 0 -65 0 0 290 0 290 165 0 165 0
0 -55z m1018 -33 c18 -48 49 -131 70 -184 20 -54 39 -98 42 -98 3 0 37 83 75
185 l70 185 73 0 c39 0 72 -2 72 -4 0 -2 -54 -132 -119 -288 l-119 -283 -52 0
-52 0 -119 283 c-66 156 -119 285 -119 288 0 2 33 4 73 4 l72 0 33 -88z m632
-202 l0 -290 -65 0 -65 0 0 200 c0 110 -3 200 -6 200 -3 0 -18 -8 -32 -18 -53
-37 -52 -38 -52 31 l0 65 78 51 c51 33 88 50 110 51 l32 0 0 -290z m-1289 70
c18 -10 18 -12 -6 -60 -24 -47 -26 -49 -52 -39 -14 5 -39 7 -55 4 -48 -11 -58
-37 -58 -157 l0 -108 -60 0 -60 0 0 180 0 180 60 0 c54 0 60 -2 60 -20 0 -20
1 -20 37 5 40 27 99 33 134 15z m292 -9 c29 -15 37 -16 37 -5 0 10 15 14 60
14 l60 0 0 -180 0 -180 -60 0 c-54 0 -60 2 -60 21 l0 20 -29 -20 c-104 -74
-251 1 -268 136 -10 85 33 169 102 199 44 19 115 17 158 -5z"/>
<path d="M3530 3041 c-15 -29 -13 -31 23 -31 46 0 65 14 48 34 -18 22 -58 20
-71 -3z"/>
<path d="M3282 3008 c-17 -17 -15 -79 4 -106 30 -43 74 -21 74 38 0 62 -45
101 -78 68z"/>
<path d="M3010 2970 c-21 -13 -17 -85 5 -110 20 -23 45 -26 63 -8 15 15 16 82
2 109 -11 20 -45 25 -70 9z"/>
<path d="M2627 2923 c-4 -3 -7 -15 -7 -25 0 -13 7 -18 28 -18 36 0 56 14 49
34 -6 16 -57 23 -70 9z"/>
<path d="M1872 2808 c-20 -20 -15 -85 8 -108 25 -25 35 -25 60 0 17 17 19 28
14 58 -4 20 -11 43 -17 50 -12 15 -49 16 -65 0z"/>
<path d="M2148 2859 c-10 -5 -18 -19 -18 -31 0 -18 4 -20 31 -14 17 3 35 6 40
6 17 0 9 29 -10 40 -23 12 -22 12 -43 -1z"/>
<path d="M1338 2659 c-20 -11 -24 -44 -7 -54 17 -11 56 3 61 22 10 40 -16 55
-54 32z"/>
<path d="M1076 2704 c-25 -24 -21 -48 7 -40 12 3 32 6 45 6 12 0 22 4 22 9 0
14 -30 41 -45 41 -7 0 -21 -7 -29 -16z"/>
<path d="M267 2624 c-4 -21 -7 -50 -7 -64 0 -24 3 -26 35 -22 19 2 35 7 35 11
-1 3 -14 30 -29 60 l-28 54 -6 -39z"/>
<path d="M624 2636 c-8 -32 12 -58 40 -54 17 2 21 10 21 38 0 31 -3 35 -27 38
-22 3 -29 -2 -34 -22z"/>
<path d="M695 2465 c-5 -2 -23 -6 -38 -9 -22 -5 -28 -12 -25 -29 5 -35 68 -36
103 -1 24 25 -3 52 -40 39z"/>
<path d="M2480 1100 c-27 -27 -35 -65 -20 -101 15 -35 37 -49 79 -49 43 0 60
9 76 41 22 41 18 77 -10 104 -31 32 -96 34 -125 5z"/>
<path d="M2977 1112 c-49 -54 18 -137 78 -98 55 36 35 116 -29 116 -19 0 -40
-8 -49 -18z"/>
<path d="M2971 871 c-25 -25 -27 -68 -5 -99 11 -16 25 -22 54 -22 43 0 67 18
76 57 16 62 -79 110 -125 64z"/>
<path d="M1149 881 c-32 -33 -36 -58 -14 -100 25 -49 90 -57 130 -16 54 53 12
145 -66 145 -11 0 -34 -13 -50 -29z"/>
</g>
</svg>
